<?xml version="1.0" encoding="utf-8"?>
<!-- Generator: Adobe Illustrator 16.0.0, SVG Export Plug-In . SVG Version: 6.00 Build 0)  -->
<!DOCTYPE svg PUBLIC "-//W3C//DTD SVG 1.1//EN" "http://www.w3.org/Graphics/SVG/1.1/DTD/svg11.dtd">
<svg version="1.1" id="图层_1" xmlns="http://www.w3.org/2000/svg" xmlns:xlink="http://www.w3.org/1999/xlink" x="0px" y="0px"
	 width="330.231px" height="197.59px" viewBox="0 0 330.231 197.59" enable-background="new 0 0 330.231 197.59"
	 xml:space="preserve">
<g>
	<linearGradient id="SVGID_1_" gradientUnits="userSpaceOnUse" x1="205.1899" y1="143.8203" x2="205.1899" y2="108.7012">
		<stop  offset="0" style="stop-color:#504FF0"/>
		<stop  offset="1" style="stop-color:#8951EC"/>
	</linearGradient>
	<path fill="url(#SVGID_1_)" d="M212.442,126.246h-0.529c-5.854,11.717-11.561,17.574-17.123,17.574
		c-3.297,0-4.945-1.949-4.945-5.848c0-1.115,0.164-2.506,0.494-4.178l3.002-15.193c0.473-2.371,0.711-3.918,0.711-4.641
		c0-1.277-0.609-1.918-1.826-1.918c-2.021,0-5.094,2.26-9.219,6.775l0.557-2.846c4.504-4.848,8.564-7.271,12.182-7.271
		c2.996,0,4.494,1.547,4.494,4.641c0,1.033-0.248,2.785-0.748,5.26l-3.055,15.225c-0.27,1.361-0.404,2.332-0.404,2.908
		c0,1.672,0.607,2.506,1.824,2.506c1.545,0,3.889-1.871,7.033-5.615c3.143-3.744,6.033-8.102,8.672-13.074l2.242-11.107l6.559-0.371
		l-2.289,9.529l-3.033,15.287c-0.475,2.371-0.711,3.918-0.711,4.641c0,1.299,0.607,1.949,1.826,1.949
		c2.041,0,5.115-2.27,9.219-6.807l-0.557,2.877c-4.525,4.848-8.586,7.271-12.182,7.271c-2.996,0-4.494-1.557-4.494-4.672
		c0-1.053,0.248-2.805,0.746-5.26L212.442,126.246z"/>
	<linearGradient id="SVGID_2_" gradientUnits="userSpaceOnUse" x1="241.0952" y1="143.8203" x2="241.0952" y2="93.416">
		<stop  offset="0" style="stop-color:#504FF0"/>
		<stop  offset="1" style="stop-color:#8951EC"/>
	</linearGradient>
	<path fill="url(#SVGID_2_)" d="M251.321,133.672l-0.557,2.877c-4.518,4.848-8.57,7.271-12.158,7.271
		c-2.971,0-4.457-1.557-4.457-4.672c0-1.053,0.238-2.785,0.713-5.199l2.135-10.768c0.576-3.053,0.865-5.084,0.865-6.096
		c0-1.732-0.67-2.598-2.01-2.598c-0.93,0-2.59,0.35-4.982,1.051l0.371-1.887l15.131-4.951l-2.352,9.9l-3.033,15.287
		c-0.475,2.393-0.711,3.918-0.711,4.578c0,1.342,0.607,2.012,1.826,2.012C244.143,140.479,247.217,138.209,251.321,133.672z
		 M239.967,103.318l2.072-4.209l8.725-5.693l-2.66,5.693L239.967,103.318z"/>
</g>
<linearGradient id="SVGID_3_" gradientUnits="userSpaceOnUse" x1="103.2075" y1="142.752" x2="103.2075" y2="94.7627">
	<stop  offset="0" style="stop-color:#504FF0"/>
	<stop  offset="1" style="stop-color:#8951EC"/>
</linearGradient>
<path fill="url(#SVGID_3_)" d="M67.889,138.482l4.426-4.549c2.082,3.424,4.98,5.137,8.693,5.137c2.434,0,4.59-1.031,6.467-3.094
	s3.156-4.797,3.836-8.199l5.848-29.395c-1.051-0.165-1.783-0.247-2.197-0.247c-3.402,0-6.238,1.212-8.508,3.636
	s-3.402,5.441-3.402,9.051l-6.004,2.938c0.434-5.754,2.734-10.23,6.9-13.428s9.766-4.796,16.801-4.796h2.506
	c3.816,10.624,6.6,21.546,8.354,32.767l20.297-32.767l6.621-0.773l-2.352,9.933l-5.043,25.277c-0.434,2.25-0.648,4.043-0.648,5.385
	c0,1.814,1.102,2.723,3.311,2.723c1.092,0,2.557-0.113,4.393-0.34l-0.402,1.979l-15.285,3.033l8.014-40.285l-21.162,33.912
	l-3.188,0.494v-0.896c0-8.066-1.971-18.08-5.91-30.043l-2.537,12.623c-3.094,15.574-9.838,23.359-20.234,23.359
	C73.85,141.916,70.653,140.771,67.889,138.482z"/>
<linearGradient id="SVGID_4_" gradientUnits="userSpaceOnUse" x1="157.9761" y1="142.752" x2="157.9761" y2="53.7695">
	<stop  offset="0" style="stop-color:#504FF0"/>
	<stop  offset="1" style="stop-color:#8951EC"/>
</linearGradient>
<path fill="url(#SVGID_4_)" d="M152.842,142.752l0.301-13.07c0-25.869-2.354-43.83-7.061-53.879
	c-4.975-10.583-11.066-15.874-18.275-15.874c-6.512,0-12.27,4.156-17.277,12.468l-2.553-1.352
	c7.41-11.516,15.506-17.275,24.285-17.275c20.965,0,31.447,24.053,31.447,72.158l16.043-25.088
	c9.725-15.189,14.588-24.687,14.588-28.492c0-1.27-1.506-1.902-4.514-1.902h-4.01l0.604-3.055h21.555l-0.652,3.055h-4.16
	L158.1,141.5L152.842,142.752z"/>
</svg>
