<?xml version="1.0" encoding="utf-8"?>
<!-- Generator: Adobe Illustrator 16.0.0, SVG Export Plug-In . SVG Version: 6.00 Build 0)  -->
<!DOCTYPE svg PUBLIC "-//W3C//DTD SVG 1.1//EN" "http://www.w3.org/Graphics/SVG/1.1/DTD/svg11.dtd">
<svg version="1.1" id="图层_1" xmlns="http://www.w3.org/2000/svg" xmlns:xlink="http://www.w3.org/1999/xlink" x="0px" y="0px"
	 width="330.231px" height="197.59px" viewBox="0 0 330.231 197.59" enable-background="new 0 0 330.231 197.59"
	 xml:space="preserve">
<g>
	<linearGradient id="SVGID_1_" gradientUnits="userSpaceOnUse" x1="209.8193" y1="143.8203" x2="209.8193" y2="108.7012">
		<stop  offset="0" style="stop-color:#1964EB"/>
		<stop  offset="1" style="stop-color:#19A8F0"/>
	</linearGradient>
	<path fill="url(#SVGID_1_)" d="M217.071,126.246h-0.529c-5.853,11.717-11.561,17.574-17.123,17.574
		c-3.297,0-4.945-1.949-4.945-5.848c0-1.115,0.164-2.506,0.494-4.178l3.002-15.193c0.474-2.371,0.711-3.918,0.711-4.641
		c0-1.277-0.608-1.918-1.825-1.918c-2.022,0-5.095,2.26-9.22,6.775l0.557-2.846c4.504-4.848,8.565-7.271,12.182-7.271
		c2.996,0,4.495,1.547,4.495,4.641c0,1.033-0.249,2.785-0.748,5.26l-3.055,15.225c-0.271,1.361-0.405,2.332-0.405,2.908
		c0,1.672,0.607,2.506,1.824,2.506c1.545,0,3.89-1.871,7.033-5.615c3.143-3.744,6.033-8.102,8.672-13.074l2.242-11.107l6.559-0.371
		l-2.289,9.529l-3.033,15.287c-0.475,2.371-0.711,3.918-0.711,4.641c0,1.299,0.607,1.949,1.826,1.949c2.041,0,5.115-2.27,9.22-6.807
		l-0.558,2.877c-4.525,4.848-8.586,7.271-12.182,7.271c-2.996,0-4.494-1.557-4.494-4.672c0-1.053,0.248-2.805,0.746-5.26
		L217.071,126.246z"/>
	<linearGradient id="SVGID_2_" gradientUnits="userSpaceOnUse" x1="245.7246" y1="143.8203" x2="245.7246" y2="93.418">
		<stop  offset="0" style="stop-color:#1964EB"/>
		<stop  offset="1" style="stop-color:#19A8F0"/>
	</linearGradient>
	<path fill="url(#SVGID_2_)" d="M255.951,133.672l-0.557,2.877c-4.518,4.848-8.571,7.271-12.159,7.271
		c-2.971,0-4.456-1.557-4.456-4.672c0-1.053,0.237-2.785,0.712-5.199l2.135-10.768c0.577-3.053,0.866-5.084,0.866-6.096
		c0-1.732-0.671-2.598-2.011-2.598c-0.929,0-2.59,0.35-4.982,1.051l0.372-1.887l15.13-4.951l-2.352,9.9l-3.032,15.287
		c-0.475,2.393-0.712,3.918-0.712,4.578c0,1.342,0.608,2.012,1.826,2.012C248.773,140.479,251.846,138.209,255.951,133.672z
		 M244.596,103.318l2.072-4.209l8.726-5.691l-2.661,5.691L244.596,103.318z"/>
</g>
<linearGradient id="SVGID_3_" gradientUnits="userSpaceOnUse" x1="107.8369" y1="142.752" x2="107.8369" y2="94.7637">
	<stop  offset="0" style="stop-color:#1964EB"/>
	<stop  offset="1" style="stop-color:#19A8F0"/>
</linearGradient>
<path fill="url(#SVGID_3_)" d="M72.518,138.482l4.426-4.549c2.082,3.424,4.98,5.137,8.693,5.137c2.434,0,4.59-1.031,6.467-3.094
	s3.156-4.797,3.836-8.199l5.848-29.395c-1.051-0.164-1.783-0.246-2.196-0.246c-3.403,0-6.239,1.211-8.509,3.635
	s-3.402,5.441-3.402,9.051l-6.003,2.938c0.433-5.754,2.733-10.23,6.899-13.428s9.767-4.795,16.801-4.795h2.506
	c3.816,10.623,6.601,21.545,8.354,32.766l20.297-32.766l6.622-0.773l-2.352,9.932l-5.044,25.277
	c-0.433,2.25-0.648,4.043-0.648,5.385c0,1.814,1.103,2.723,3.311,2.723c1.092,0,2.557-0.113,4.393-0.34l-0.402,1.979l-15.284,3.033
	l8.014-40.285l-21.163,33.912l-3.188,0.494v-0.896c0-8.066-1.97-18.08-5.909-30.043l-2.537,12.623
	c-3.095,15.574-9.839,23.359-20.235,23.359C78.479,141.916,75.283,140.771,72.518,138.482z"/>
<linearGradient id="SVGID_4_" gradientUnits="userSpaceOnUse" x1="162.605" y1="142.752" x2="162.605" y2="53.7695">
	<stop  offset="0" style="stop-color:#1964EB"/>
	<stop  offset="1" style="stop-color:#19A8F0"/>
</linearGradient>
<path fill="url(#SVGID_4_)" d="M157.472,142.752l0.3-13.07c0-25.869-2.353-43.83-7.061-53.879
	c-4.975-10.582-11.066-15.873-18.275-15.873c-6.511,0-12.27,4.156-17.276,12.467l-2.554-1.352
	c7.411-11.516,15.506-17.275,24.285-17.275c20.965,0,31.447,24.053,31.447,72.158l16.043-25.088
	c9.725-15.189,14.588-24.686,14.588-28.492c0-1.27-1.506-1.902-4.514-1.902h-4.01l0.604-3.055h21.555l-0.652,3.055h-4.16
	L162.729,141.5L157.472,142.752z"/>
</svg>
