<?xml version="1.0" encoding="utf-8"?>
<!-- Generator: Adobe Illustrator 16.0.0, SVG Export Plug-In . SVG Version: 6.00 Build 0)  -->
<!DOCTYPE svg PUBLIC "-//W3C//DTD SVG 1.1//EN" "http://www.w3.org/Graphics/SVG/1.1/DTD/svg11.dtd">
<svg version="1.1" id="图层_1" xmlns="http://www.w3.org/2000/svg" xmlns:xlink="http://www.w3.org/1999/xlink" x="0px" y="0px"
	 width="330.231px" height="197.59px" viewBox="0 0 330.231 197.59" enable-background="new 0 0 330.231 197.59"
	 xml:space="preserve">
<g>
	<linearGradient id="SVGID_1_" gradientUnits="userSpaceOnUse" x1="208.1899" y1="143.8203" x2="208.1899" y2="108.7031">
		<stop  offset="0" style="stop-color:#1A97EA"/>
		<stop  offset="1" style="stop-color:#1ADAEE"/>
	</linearGradient>
	<path fill="url(#SVGID_1_)" d="M215.442,126.246h-0.529c-5.854,11.717-11.561,17.574-17.123,17.574
		c-3.297,0-4.945-1.949-4.945-5.848c0-1.115,0.164-2.506,0.494-4.178l3.002-15.191c0.473-2.371,0.711-3.918,0.711-4.641
		c0-1.279-0.609-1.918-1.826-1.918c-2.021,0-5.094,2.258-9.219,6.775l0.557-2.848c4.504-4.846,8.564-7.27,12.182-7.27
		c2.996,0,4.494,1.547,4.494,4.641c0,1.031-0.248,2.785-0.748,5.26l-3.055,15.223c-0.27,1.361-0.404,2.332-0.404,2.908
		c0,1.672,0.607,2.506,1.824,2.506c1.545,0,3.889-1.871,7.033-5.615c3.143-3.744,6.033-8.102,8.672-13.072l2.242-11.107l6.559-0.371
		l-2.289,9.529l-3.033,15.285c-0.475,2.371-0.711,3.918-0.711,4.641c0,1.299,0.607,1.949,1.826,1.949
		c2.041,0,5.115-2.27,9.219-6.807l-0.557,2.877c-4.525,4.848-8.586,7.271-12.182,7.271c-2.996,0-4.494-1.557-4.494-4.672
		c0-1.053,0.248-2.805,0.746-5.26L215.442,126.246z"/>
	<linearGradient id="SVGID_2_" gradientUnits="userSpaceOnUse" x1="244.0952" y1="143.8203" x2="244.0952" y2="93.418">
		<stop  offset="0" style="stop-color:#1A97EA"/>
		<stop  offset="1" style="stop-color:#1ADAEE"/>
	</linearGradient>
	<path fill="url(#SVGID_2_)" d="M254.321,133.672l-0.557,2.877c-4.518,4.848-8.57,7.271-12.158,7.271
		c-2.971,0-4.457-1.557-4.457-4.672c0-1.053,0.238-2.785,0.713-5.199l2.135-10.766c0.576-3.053,0.865-5.086,0.865-6.096
		c0-1.732-0.67-2.6-2.01-2.6c-0.93,0-2.59,0.352-4.982,1.053l0.371-1.889l15.131-4.949l-2.352,9.9l-3.033,15.285
		c-0.475,2.393-0.711,3.918-0.711,4.578c0,1.342,0.607,2.012,1.826,2.012C247.143,140.479,250.217,138.209,254.321,133.672z
		 M242.967,103.318l2.072-4.207l8.725-5.693l-2.66,5.693L242.967,103.318z"/>
</g>
<linearGradient id="SVGID_3_" gradientUnits="userSpaceOnUse" x1="106.2075" y1="142.752" x2="106.2075" y2="94.7637">
	<stop  offset="0" style="stop-color:#1A97EA"/>
	<stop  offset="1" style="stop-color:#1ADAEE"/>
</linearGradient>
<path fill="url(#SVGID_3_)" d="M70.889,138.482l4.426-4.548c2.082,3.424,4.98,5.136,8.693,5.136c2.434,0,4.59-1.031,6.467-3.094
	s3.156-4.796,3.836-8.199l5.848-29.394c-1.051-0.165-1.783-0.247-2.197-0.247c-3.402,0-6.238,1.212-8.508,3.635
	c-2.27,2.424-3.402,5.441-3.402,9.051l-6.004,2.938c0.434-5.755,2.734-10.23,6.9-13.428s9.766-4.796,16.801-4.796h2.506
	c3.816,10.623,6.6,21.545,8.354,32.766l20.297-32.766l6.621-0.773l-2.352,9.932l-5.043,25.278c-0.434,2.249-0.648,4.043-0.648,5.384
	c0,1.815,1.102,2.723,3.311,2.723c1.092,0,2.557-0.113,4.393-0.34l-0.402,1.979l-15.285,3.032l8.014-40.284l-21.162,33.911
	l-3.188,0.495v-0.897c0-8.065-1.971-18.079-5.91-30.043l-2.537,12.623c-3.094,15.574-9.838,23.36-20.234,23.36
	C76.85,141.917,73.653,140.772,70.889,138.482z"/>
<linearGradient id="SVGID_4_" gradientUnits="userSpaceOnUse" x1="160.9761" y1="142.752" x2="160.9761" y2="53.7705">
	<stop  offset="0" style="stop-color:#1A97EA"/>
	<stop  offset="1" style="stop-color:#1ADAEE"/>
</linearGradient>
<path fill="url(#SVGID_4_)" d="M155.842,142.752l0.301-13.069c0-25.87-2.354-43.831-7.061-53.879
	c-4.975-10.583-11.066-15.874-18.275-15.874c-6.512,0-12.27,4.156-17.277,12.469l-2.553-1.352
	c7.41-11.518,15.506-17.276,24.285-17.276c20.965,0,31.447,24.054,31.447,72.157l16.043-25.088
	c9.725-15.188,14.588-24.686,14.588-28.491c0-1.269-1.506-1.903-4.514-1.903h-4.01l0.604-3.055h21.555l-0.652,3.055h-4.16
	L161.1,141.5L155.842,142.752z"/>
</svg>
