<?xml version="1.0" encoding="utf-8"?>
<!-- Generator: Adobe Illustrator 16.0.0, SVG Export Plug-In . SVG Version: 6.00 Build 0)  -->
<!DOCTYPE svg PUBLIC "-//W3C//DTD SVG 1.1//EN" "http://www.w3.org/Graphics/SVG/1.1/DTD/svg11.dtd">
<svg version="1.1" id="图层_1" xmlns="http://www.w3.org/2000/svg" xmlns:xlink="http://www.w3.org/1999/xlink" x="0px" y="0px"
	 width="330.231px" height="197.59px" viewBox="0 0 330.231 197.59" enable-background="new 0 0 330.231 197.59"
	 xml:space="preserve">
<path fill="#03ABF2" d="M20.255-167.627h18.413v7.51c2.653-3.133,5.329-5.361,8.03-6.687c2.701-1.324,5.96-1.986,9.778-1.986
	c4.108,0,7.359,0.727,9.753,2.181c2.394,1.453,4.351,3.618,5.871,6.492c3.096-3.359,5.919-5.645,8.468-6.856
	c2.548-1.211,5.693-1.816,9.436-1.816c5.516,0,9.822,1.64,12.919,4.918c3.097,3.279,4.646,8.406,4.646,15.384v32.318H87.799v-29.314
	c0-2.325-0.451-4.053-1.352-5.185c-1.32-1.775-2.962-2.665-4.925-2.665c-2.318,0-4.185,0.841-5.602,2.52
	c-1.417,1.681-2.125,4.378-2.125,8.092v26.553H54.027v-28.345c0-2.261-0.13-3.796-0.389-4.604c-0.421-1.292-1.151-2.333-2.188-3.125
	c-1.037-0.791-2.253-1.188-3.646-1.188c-2.27,0-4.134,0.856-5.592,2.568c-1.459,1.712-2.188,4.522-2.188,8.431v26.262H20.255
	V-167.627z"/>
<path opacity="0.85" fill="#9CCC17" d="M87.75-168.79h18.862l10.208,33.346l10.592-33.346h19.879L125.4-116.17h-17.886L87.75-168.79
	z"/>
<path opacity="0.8" fill="#EFCC20" d="M181.888-117.333h-18.412v-8.334c-2.746,3.424-5.517,5.863-8.311,7.316
	c-2.794,1.454-6.226,2.181-10.296,2.181c-5.427,0-9.683-1.623-12.768-4.87c-3.085-3.246-4.627-8.244-4.627-14.996v-32.754h19.817
	v28.296c0,3.23,0.598,5.524,1.793,6.881c1.194,1.356,2.874,2.035,5.039,2.035c2.357,0,4.288-0.904,5.79-2.714
	c1.502-1.809,2.253-5.055,2.253-9.738v-24.76h19.721V-117.333z"/>
<rect x="172.027" y="-168.794" opacity="0.75" fill="#FC6E27" width="19.721" height="51.457"/>
<g>
	<g>
		<g>
			<linearGradient id="SVGID_1_" gradientUnits="userSpaceOnUse" x1="206.8193" y1="139.7261" x2="206.8193" y2="104.6089">
				<stop  offset="0" style="stop-color:#1A9ED8"/>
				<stop  offset="1" style="stop-color:#0ACCB2"/>
			</linearGradient>
			<path fill="url(#SVGID_1_)" d="M214.071,122.152h-0.529c-5.853,11.717-11.561,17.574-17.123,17.574
				c-3.297,0-4.945-1.949-4.945-5.848c0-1.115,0.164-2.506,0.494-4.178l3.002-15.191c0.474-2.371,0.711-3.918,0.711-4.641
				c0-1.278-0.608-1.918-1.825-1.918c-2.022,0-5.095,2.259-9.22,6.775l0.557-2.847c4.504-4.847,8.565-7.271,12.182-7.271
				c2.996,0,4.495,1.547,4.495,4.641c0,1.032-0.249,2.785-0.748,5.26l-3.055,15.223c-0.271,1.361-0.405,2.332-0.405,2.908
				c0,1.672,0.607,2.506,1.824,2.506c1.545,0,3.89-1.871,7.033-5.615c3.143-3.744,6.033-8.102,8.672-13.072l2.242-11.107
				l6.559-0.371l-2.289,9.529l-3.033,15.285c-0.475,2.371-0.711,3.918-0.711,4.641c0,1.299,0.607,1.949,1.826,1.949
				c2.041,0,5.115-2.27,9.22-6.807l-0.558,2.877c-4.525,4.848-8.586,7.271-12.182,7.271c-2.996,0-4.494-1.557-4.494-4.672
				c0-1.053,0.248-2.805,0.746-5.26L214.071,122.152z"/>
			<linearGradient id="SVGID_2_" gradientUnits="userSpaceOnUse" x1="242.7246" y1="139.7261" x2="242.7246" y2="89.3237">
				<stop  offset="0" style="stop-color:#1A9ED8"/>
				<stop  offset="1" style="stop-color:#0ACCB2"/>
			</linearGradient>
			<path fill="url(#SVGID_2_)" d="M252.951,129.578l-0.557,2.877c-4.518,4.848-8.571,7.271-12.159,7.271
				c-2.971,0-4.456-1.557-4.456-4.672c0-1.053,0.237-2.785,0.712-5.199l2.135-10.766c0.577-3.053,0.866-5.085,0.866-6.096
				c0-1.732-0.671-2.599-2.011-2.599c-0.929,0-2.59,0.351-4.982,1.052l0.372-1.888l15.13-4.95l-2.352,9.9l-3.032,15.285
				c-0.475,2.393-0.712,3.918-0.712,4.578c0,1.342,0.608,2.012,1.826,2.012C245.773,136.384,248.846,134.115,252.951,129.578z
				 M241.596,99.225l2.072-4.208l8.726-5.693l-2.661,5.693L241.596,99.225z"/>
		</g>
	</g>
	<linearGradient id="SVGID_3_" gradientUnits="userSpaceOnUse" x1="104.8369" y1="138.6577" x2="104.8369" y2="90.6694">
		<stop  offset="0" style="stop-color:#1A9ED8"/>
		<stop  offset="1" style="stop-color:#0ACCB2"/>
	</linearGradient>
	<path fill="url(#SVGID_3_)" d="M69.518,134.388l4.426-4.547c2.082,3.424,4.98,5.135,8.693,5.135c2.434,0,4.59-1.031,6.467-3.094
		s3.156-4.795,3.836-8.199l5.848-29.393c-1.051-0.166-1.783-0.248-2.196-0.248c-3.403,0-6.239,1.213-8.509,3.635
		c-2.27,2.424-3.402,5.441-3.402,9.051l-6.003,2.939c0.433-5.756,2.733-10.23,6.899-13.428s9.767-4.797,16.801-4.797h2.506
		c3.816,10.623,6.601,21.545,8.354,32.766l20.297-32.766l6.622-0.773l-2.352,9.932l-5.044,25.279
		c-0.433,2.248-0.648,4.043-0.648,5.383c0,1.816,1.103,2.723,3.311,2.723c1.092,0,2.557-0.113,4.393-0.34l-0.402,1.98l-15.284,3.031
		l8.014-40.283l-21.163,33.91l-3.188,0.496v-0.898c0-8.064-1.97-18.078-5.909-30.043l-2.537,12.623
		c-3.095,15.574-9.839,23.361-20.235,23.361C75.479,137.824,72.283,136.679,69.518,134.388z"/>
	<linearGradient id="SVGID_4_" gradientUnits="userSpaceOnUse" x1="159.605" y1="138.6577" x2="159.605" y2="49.6772">
		<stop  offset="0" style="stop-color:#1A9ED8"/>
		<stop  offset="1" style="stop-color:#0ACCB2"/>
	</linearGradient>
	<path fill="url(#SVGID_4_)" d="M154.472,138.658l0.3-13.068c0-25.871-2.353-43.831-7.061-53.88
		c-4.975-10.582-11.066-15.874-18.275-15.874c-6.511,0-12.27,4.157-17.276,12.469l-2.554-1.352
		c7.411-11.517,15.506-17.275,24.285-17.275c20.965,0,31.447,24.053,31.447,72.156l16.043-25.088
		c9.725-15.188,14.588-24.685,14.588-28.491c0-1.269-1.506-1.902-4.514-1.902h-4.01l0.604-3.055h21.555l-0.652,3.055h-4.16
		l-45.063,71.054L154.472,138.658z"/>
</g>
<g>
	<linearGradient id="SVGID_5_" gradientUnits="userSpaceOnUse" x1="208.1899" y1="643.2949" x2="208.1899" y2="608.1777">
		<stop  offset="0" style="stop-color:#1A97EA"/>
		<stop  offset="1" style="stop-color:#1ADAEE"/>
	</linearGradient>
	<path fill="url(#SVGID_5_)" d="M215.442,625.721h-0.529c-5.854,11.717-11.561,17.574-17.123,17.574
		c-3.297,0-4.945-1.949-4.945-5.848c0-1.115,0.164-2.506,0.494-4.178l3.002-15.191c0.473-2.371,0.711-3.918,0.711-4.641
		c0-1.279-0.609-1.918-1.826-1.918c-2.021,0-5.094,2.258-9.219,6.775l0.557-2.848c4.504-4.846,8.564-7.27,12.182-7.27
		c2.996,0,4.494,1.547,4.494,4.641c0,1.031-0.248,2.785-0.748,5.26l-3.055,15.223c-0.27,1.361-0.404,2.332-0.404,2.908
		c0,1.672,0.607,2.506,1.824,2.506c1.545,0,3.889-1.871,7.033-5.615c3.143-3.744,6.033-8.102,8.672-13.072l2.242-11.107l6.559-0.371
		l-2.289,9.529l-3.033,15.285c-0.475,2.371-0.711,3.918-0.711,4.641c0,1.299,0.607,1.949,1.826,1.949
		c2.041,0,5.115-2.27,9.219-6.807l-0.557,2.877c-4.525,4.848-8.586,7.271-12.182,7.271c-2.996,0-4.494-1.557-4.494-4.672
		c0-1.053,0.248-2.805,0.746-5.26L215.442,625.721z"/>
	<linearGradient id="SVGID_6_" gradientUnits="userSpaceOnUse" x1="244.0952" y1="643.2949" x2="244.0952" y2="592.8926">
		<stop  offset="0" style="stop-color:#1A97EA"/>
		<stop  offset="1" style="stop-color:#1ADAEE"/>
	</linearGradient>
	<path fill="url(#SVGID_6_)" d="M254.321,633.146l-0.557,2.877c-4.518,4.848-8.57,7.271-12.158,7.271
		c-2.971,0-4.457-1.557-4.457-4.672c0-1.053,0.238-2.785,0.713-5.199l2.135-10.766c0.576-3.053,0.865-5.086,0.865-6.096
		c0-1.732-0.67-2.6-2.01-2.6c-0.93,0-2.59,0.352-4.982,1.053l0.371-1.889l15.131-4.949l-2.352,9.9l-3.033,15.285
		c-0.475,2.393-0.711,3.918-0.711,4.578c0,1.342,0.607,2.012,1.826,2.012C247.143,639.953,250.217,637.684,254.321,633.146z
		 M242.967,602.793l2.072-4.207l8.725-5.693l-2.66,5.693L242.967,602.793z"/>
</g>
<linearGradient id="SVGID_7_" gradientUnits="userSpaceOnUse" x1="106.2075" y1="642.2266" x2="106.2075" y2="594.2383">
	<stop  offset="0" style="stop-color:#1A97EA"/>
	<stop  offset="1" style="stop-color:#1ADAEE"/>
</linearGradient>
<path fill="url(#SVGID_7_)" d="M70.889,637.957l4.426-4.548c2.082,3.424,4.98,5.136,8.693,5.136c2.434,0,4.59-1.031,6.467-3.094
	s3.156-4.796,3.836-8.199l5.848-29.394c-1.051-0.165-1.783-0.247-2.197-0.247c-3.402,0-6.238,1.212-8.508,3.635
	c-2.27,2.424-3.402,5.441-3.402,9.051l-6.004,2.938c0.434-5.755,2.734-10.23,6.9-13.428s9.766-4.796,16.801-4.796h2.506
	c3.816,10.623,6.6,21.545,8.354,32.766l20.297-32.766l6.621-0.773l-2.352,9.932l-5.043,25.278c-0.434,2.249-0.648,4.043-0.648,5.384
	c0,1.815,1.102,2.723,3.311,2.723c1.092,0,2.557-0.113,4.393-0.34l-0.402,1.979l-15.285,3.032l8.014-40.284l-21.162,33.911
	l-3.188,0.495v-0.897c0-8.065-1.971-18.079-5.91-30.043l-2.537,12.623c-3.094,15.574-9.838,23.36-20.234,23.36
	C76.85,641.392,73.653,640.247,70.889,637.957z"/>
<linearGradient id="SVGID_8_" gradientUnits="userSpaceOnUse" x1="160.9761" y1="642.2266" x2="160.9761" y2="553.2451">
	<stop  offset="0" style="stop-color:#1A97EA"/>
	<stop  offset="1" style="stop-color:#1ADAEE"/>
</linearGradient>
<path fill="url(#SVGID_8_)" d="M155.842,642.227l0.301-13.069c0-25.87-2.354-43.831-7.061-53.879
	c-4.975-10.583-11.066-15.874-18.275-15.874c-6.512,0-12.27,4.156-17.277,12.469l-2.553-1.352
	c7.41-11.518,15.506-17.276,24.285-17.276c20.965,0,31.447,24.054,31.447,72.157l16.043-25.088
	c9.725-15.188,14.588-24.686,14.588-28.491c0-1.269-1.506-1.903-4.514-1.903h-4.01l0.604-3.055h21.555l-0.652,3.055h-4.16
	L161.1,640.975L155.842,642.227z"/>
<g>
	<linearGradient id="SVGID_9_" gradientUnits="userSpaceOnUse" x1="209.8193" y1="397.8076" x2="209.8193" y2="362.6885">
		<stop  offset="0" style="stop-color:#1964EB"/>
		<stop  offset="1" style="stop-color:#19A8F0"/>
	</linearGradient>
	<path fill="url(#SVGID_9_)" d="M217.071,380.233h-0.529c-5.853,11.717-11.561,17.574-17.123,17.574
		c-3.297,0-4.945-1.949-4.945-5.848c0-1.115,0.164-2.506,0.494-4.178l3.002-15.193c0.474-2.371,0.711-3.918,0.711-4.641
		c0-1.277-0.608-1.918-1.825-1.918c-2.022,0-5.095,2.26-9.22,6.775l0.557-2.846c4.504-4.848,8.565-7.271,12.182-7.271
		c2.996,0,4.495,1.547,4.495,4.641c0,1.033-0.249,2.785-0.748,5.26l-3.055,15.225c-0.271,1.361-0.405,2.332-0.405,2.908
		c0,1.672,0.607,2.506,1.824,2.506c1.545,0,3.89-1.871,7.033-5.615c3.143-3.744,6.033-8.102,8.672-13.074l2.242-11.107l6.559-0.371
		l-2.289,9.529l-3.033,15.287c-0.475,2.371-0.711,3.918-0.711,4.641c0,1.299,0.607,1.949,1.826,1.949c2.041,0,5.115-2.27,9.22-6.807
		l-0.558,2.877c-4.525,4.848-8.586,7.271-12.182,7.271c-2.996,0-4.494-1.557-4.494-4.672c0-1.053,0.248-2.805,0.746-5.26
		L217.071,380.233z"/>
	<linearGradient id="SVGID_10_" gradientUnits="userSpaceOnUse" x1="245.7246" y1="397.8076" x2="245.7246" y2="347.4053">
		<stop  offset="0" style="stop-color:#1964EB"/>
		<stop  offset="1" style="stop-color:#19A8F0"/>
	</linearGradient>
	<path fill="url(#SVGID_10_)" d="M255.951,387.659l-0.557,2.877c-4.518,4.848-8.571,7.271-12.159,7.271
		c-2.971,0-4.456-1.557-4.456-4.672c0-1.053,0.237-2.785,0.712-5.199l2.135-10.768c0.577-3.053,0.866-5.084,0.866-6.096
		c0-1.732-0.671-2.598-2.011-2.598c-0.929,0-2.59,0.35-4.982,1.051l0.372-1.887l15.13-4.951l-2.352,9.9l-3.032,15.287
		c-0.475,2.393-0.712,3.918-0.712,4.578c0,1.342,0.608,2.012,1.826,2.012C248.773,394.466,251.846,392.196,255.951,387.659z
		 M244.596,357.306l2.072-4.209l8.726-5.691l-2.661,5.691L244.596,357.306z"/>
</g>
<linearGradient id="SVGID_11_" gradientUnits="userSpaceOnUse" x1="107.8369" y1="396.7393" x2="107.8369" y2="348.751">
	<stop  offset="0" style="stop-color:#1964EB"/>
	<stop  offset="1" style="stop-color:#19A8F0"/>
</linearGradient>
<path fill="url(#SVGID_11_)" d="M72.518,392.47l4.426-4.549c2.082,3.424,4.98,5.137,8.693,5.137c2.434,0,4.59-1.031,6.467-3.094
	s3.156-4.797,3.836-8.199l5.848-29.395c-1.051-0.164-1.783-0.246-2.196-0.246c-3.403,0-6.239,1.211-8.509,3.635
	s-3.402,5.441-3.402,9.051l-6.003,2.938c0.433-5.754,2.733-10.23,6.899-13.428s9.767-4.795,16.801-4.795h2.506
	c3.816,10.623,6.601,21.545,8.354,32.766l20.297-32.766l6.622-0.773l-2.352,9.932l-5.044,25.277
	c-0.433,2.25-0.648,4.043-0.648,5.385c0,1.814,1.103,2.723,3.311,2.723c1.092,0,2.557-0.113,4.393-0.34l-0.402,1.979l-15.284,3.033
	l8.014-40.285l-21.163,33.912l-3.188,0.494v-0.896c0-8.066-1.97-18.08-5.909-30.043l-2.537,12.623
	c-3.095,15.574-9.839,23.359-20.235,23.359C78.479,395.903,75.283,394.759,72.518,392.47z"/>
<linearGradient id="SVGID_12_" gradientUnits="userSpaceOnUse" x1="162.605" y1="396.7393" x2="162.605" y2="307.7568">
	<stop  offset="0" style="stop-color:#1964EB"/>
	<stop  offset="1" style="stop-color:#19A8F0"/>
</linearGradient>
<path fill="url(#SVGID_12_)" d="M157.472,396.739l0.3-13.07c0-25.869-2.353-43.83-7.061-53.879
	c-4.975-10.582-11.066-15.873-18.275-15.873c-6.511,0-12.27,4.156-17.276,12.467l-2.554-1.352
	c7.411-11.516,15.506-17.275,24.285-17.275c20.965,0,31.447,24.053,31.447,72.158l16.043-25.088
	c9.725-15.189,14.588-24.686,14.588-28.492c0-1.27-1.506-1.902-4.514-1.902h-4.01l0.604-3.055h21.555l-0.652,3.055h-4.16
	l-45.063,71.055L157.472,396.739z"/>
<g>
	<linearGradient id="SVGID_13_" gradientUnits="userSpaceOnUse" x1="205.1899" y1="892.2813" x2="205.1899" y2="857.1621">
		<stop  offset="0" style="stop-color:#504FF0"/>
		<stop  offset="1" style="stop-color:#8951EC"/>
	</linearGradient>
	<path fill="url(#SVGID_13_)" d="M212.442,874.707h-0.529c-5.854,11.717-11.561,17.574-17.123,17.574
		c-3.297,0-4.945-1.949-4.945-5.848c0-1.115,0.164-2.506,0.494-4.178l3.002-15.193c0.473-2.371,0.711-3.918,0.711-4.641
		c0-1.277-0.609-1.918-1.826-1.918c-2.021,0-5.094,2.26-9.219,6.775l0.557-2.846c4.504-4.848,8.564-7.271,12.182-7.271
		c2.996,0,4.494,1.547,4.494,4.641c0,1.033-0.248,2.785-0.748,5.26l-3.055,15.225c-0.27,1.361-0.404,2.332-0.404,2.908
		c0,1.672,0.607,2.506,1.824,2.506c1.545,0,3.889-1.871,7.033-5.615c3.143-3.744,6.033-8.102,8.672-13.074l2.242-11.107l6.559-0.371
		l-2.289,9.529l-3.033,15.287c-0.475,2.371-0.711,3.918-0.711,4.641c0,1.299,0.607,1.949,1.826,1.949
		c2.041,0,5.115-2.27,9.219-6.807l-0.557,2.877c-4.525,4.848-8.586,7.271-12.182,7.271c-2.996,0-4.494-1.557-4.494-4.672
		c0-1.053,0.248-2.805,0.746-5.26L212.442,874.707z"/>
	<linearGradient id="SVGID_14_" gradientUnits="userSpaceOnUse" x1="241.0952" y1="892.2813" x2="241.0952" y2="841.877">
		<stop  offset="0" style="stop-color:#504FF0"/>
		<stop  offset="1" style="stop-color:#8951EC"/>
	</linearGradient>
	<path fill="url(#SVGID_14_)" d="M251.321,882.133l-0.557,2.877c-4.518,4.848-8.57,7.271-12.158,7.271
		c-2.971,0-4.457-1.557-4.457-4.672c0-1.053,0.238-2.785,0.713-5.199l2.135-10.768c0.576-3.053,0.865-5.084,0.865-6.096
		c0-1.732-0.67-2.598-2.01-2.598c-0.93,0-2.59,0.35-4.982,1.051l0.371-1.887l15.131-4.951l-2.352,9.9l-3.033,15.287
		c-0.475,2.393-0.711,3.918-0.711,4.578c0,1.342,0.607,2.012,1.826,2.012C244.143,888.939,247.217,886.67,251.321,882.133z
		 M239.967,851.779l2.072-4.209l8.725-5.693l-2.66,5.693L239.967,851.779z"/>
</g>
<linearGradient id="SVGID_15_" gradientUnits="userSpaceOnUse" x1="103.2075" y1="891.2129" x2="103.2075" y2="843.2236">
	<stop  offset="0" style="stop-color:#504FF0"/>
	<stop  offset="1" style="stop-color:#8951EC"/>
</linearGradient>
<path fill="url(#SVGID_15_)" d="M67.889,886.943l4.426-4.549c2.082,3.424,4.98,5.137,8.693,5.137c2.434,0,4.59-1.031,6.467-3.094
	s3.156-4.797,3.836-8.199l5.848-29.395c-1.051-0.165-1.783-0.247-2.197-0.247c-3.402,0-6.238,1.212-8.508,3.636
	s-3.402,5.441-3.402,9.051l-6.004,2.938c0.434-5.754,2.734-10.23,6.9-13.428s9.766-4.796,16.801-4.796h2.506
	c3.816,10.624,6.6,21.546,8.354,32.767l20.297-32.767l6.621-0.773l-2.352,9.933l-5.043,25.277c-0.434,2.25-0.648,4.043-0.648,5.385
	c0,1.814,1.102,2.723,3.311,2.723c1.092,0,2.557-0.113,4.393-0.34l-0.402,1.979l-15.285,3.033l8.014-40.285L109.35,884.84
	l-3.188,0.494v-0.896c0-8.066-1.971-18.08-5.91-30.043l-2.537,12.623c-3.094,15.574-9.838,23.359-20.234,23.359
	C73.85,890.377,70.653,889.232,67.889,886.943z"/>
<linearGradient id="SVGID_16_" gradientUnits="userSpaceOnUse" x1="157.9761" y1="891.2129" x2="157.9761" y2="802.2305">
	<stop  offset="0" style="stop-color:#504FF0"/>
	<stop  offset="1" style="stop-color:#8951EC"/>
</linearGradient>
<path fill="url(#SVGID_16_)" d="M152.842,891.213l0.301-13.07c0-25.869-2.354-43.83-7.061-53.879
	c-4.975-10.583-11.066-15.874-18.275-15.874c-6.512,0-12.27,4.156-17.277,12.468l-2.553-1.352
	c7.41-11.516,15.506-17.275,24.285-17.275c20.965,0,31.447,24.053,31.447,72.158l16.043-25.088
	c9.725-15.189,14.588-24.687,14.588-28.492c0-1.27-1.506-1.902-4.514-1.902h-4.01l0.604-3.055h21.555l-0.652,3.055h-4.16
	L158.1,889.961L152.842,891.213z"/>
<rect x="173.023" y="-195.329" transform="matrix(0.7071 -0.7071 0.7071 0.7071 185.1242 73.9997)" opacity="0.75" fill="#FC6E27" width="17.729" height="17.729"/>
<path fill="#0077DF" d="M223.012-167.627h18.413v7.51c2.652-3.133,5.328-5.361,8.029-6.687c2.701-1.324,5.961-1.986,9.778-1.986
	c4.108,0,7.359,0.727,9.753,2.181c2.395,1.453,4.352,3.618,5.871,6.492c3.097-3.359,5.92-5.645,8.469-6.856
	c2.548-1.211,5.693-1.816,9.436-1.816c5.516,0,9.822,1.64,12.918,4.918c3.098,3.279,4.646,8.406,4.646,15.384v32.318h-19.77v-29.314
	c0-2.325-0.451-4.053-1.352-5.185c-1.32-1.775-2.963-2.665-4.926-2.665c-2.318,0-4.185,0.841-5.602,2.52
	c-1.416,1.681-2.124,4.378-2.124,8.092v26.553h-19.769v-28.345c0-2.261-0.131-3.796-0.39-4.604
	c-0.421-1.292-1.151-2.333-2.188-3.125c-1.037-0.791-2.252-1.188-3.646-1.188c-2.27,0-4.134,0.856-5.592,2.568
	c-1.459,1.712-2.188,4.522-2.188,8.431v26.262h-19.769V-167.627z"/>
<path opacity="0.8" fill="#00B5CA" d="M290.507-168.79h18.862l10.208,33.346l10.593-33.346h19.879l-21.892,52.62h-17.887
	L290.507-168.79z"/>
<path opacity="0.8" fill="#00C951" d="M384.645-117.333h-18.412v-8.334c-2.746,3.424-5.517,5.863-8.311,7.316
	c-2.794,1.454-6.226,2.181-10.296,2.181c-5.427,0-9.684-1.623-12.768-4.87c-3.085-3.246-4.627-8.244-4.627-14.996v-32.754h19.817
	v28.296c0,3.23,0.598,5.524,1.793,6.881c1.194,1.356,2.874,2.035,5.039,2.035c2.357,0,4.288-0.904,5.79-2.714
	c1.502-1.809,2.253-5.055,2.253-9.738v-24.76h19.721V-117.333z"/>
<rect x="374.784" y="-168.794" opacity="0.7" fill="#9CCC17" width="19.721" height="51.457"/>
<rect x="375.78" y="-195.329" transform="matrix(0.7071 -0.7071 0.7071 0.7071 244.5103 217.3705)" opacity="0.7" fill="#9CCC17" width="17.729" height="17.729"/>
<linearGradient id="SVGID_17_" gradientUnits="userSpaceOnUse" x1="472.4492" y1="-121.6753" x2="472.4492" y2="-174.2954">
	<stop  offset="0" style="stop-color:#1A9ED8"/>
	<stop  offset="1" style="stop-color:#0AC789"/>
</linearGradient>
<path fill="url(#SVGID_17_)" d="M428.792-173.132h18.413v7.51c2.652-3.133,5.328-5.361,8.029-6.687
	c2.701-1.324,5.961-1.986,9.778-1.986c4.108,0,7.359,0.727,9.753,2.181c2.395,1.453,4.352,3.618,5.871,6.492
	c3.097-3.359,5.92-5.645,8.469-6.856c2.548-1.211,5.693-1.816,9.436-1.816c5.516,0,9.822,1.64,12.918,4.918
	c3.098,3.279,4.646,8.406,4.646,15.384v32.318h-19.77v-29.314c0-2.325-0.451-4.053-1.352-5.185c-1.32-1.775-2.963-2.665-4.926-2.665
	c-2.318,0-4.185,0.841-5.602,2.52c-1.416,1.681-2.124,4.378-2.124,8.092v26.553h-19.769v-28.345c0-2.261-0.131-3.796-0.39-4.604
	c-0.421-1.292-1.151-2.333-2.188-3.125c-1.037-0.791-2.252-1.188-3.646-1.188c-2.27,0-4.134,0.856-5.592,2.568
	c-1.459,1.712-2.188,4.522-2.188,8.431v26.262h-19.769V-173.132z"/>
<path opacity="0.8" fill="#00B5CA" d="M496.287-174.295h18.862l10.208,33.346l10.593-33.346h19.879l-21.892,52.62h-17.887
	L496.287-174.295z"/>
<path opacity="0.8" fill="#00C951" d="M590.425-122.838h-18.412v-8.334c-2.746,3.424-5.517,5.863-8.311,7.316
	c-2.794,1.454-6.226,2.181-10.296,2.181c-5.427,0-9.684-1.623-12.768-4.87c-3.085-3.246-4.627-8.244-4.627-14.996v-32.754h19.817
	V-146c0,3.23,0.598,5.524,1.793,6.881c1.194,1.356,2.874,2.035,5.039,2.035c2.357,0,4.288-0.904,5.79-2.714
	c1.502-1.809,2.253-5.055,2.253-9.738v-24.76h19.721V-122.838z"/>
<rect x="580.564" y="-174.299" opacity="0.7" fill="#9CCC17" width="19.721" height="51.457"/>
<rect x="581.56" y="-200.835" transform="matrix(0.7071 -0.7071 0.7071 0.7071 308.6749 361.2666)" opacity="0.7" fill="#9CCC17" width="17.729" height="17.729"/>
</svg>
